<?xml version="1.0" encoding="utf-8"?>
<!-- Generator: Adobe Illustrator 26.0.0, SVG Export Plug-In . SVG Version: 6.00 Build 0)  -->
<svg version="1.1" id="Layer_1" xmlns="http://www.w3.org/2000/svg" xmlns:xlink="http://www.w3.org/1999/xlink" x="0px" y="0px"
	 viewBox="0 0 150 50" style="enable-background:new 0 0 150 50;" xml:space="preserve">
<g>
	<path d="M5.83,32.24V17.76h4.45c1.27,0,2.41,0.29,3.42,0.86c1,0.57,1.79,1.39,2.35,2.45c0.56,1.06,0.84,2.26,0.84,3.6v0.67
		c0,1.35-0.28,2.54-0.83,3.59s-1.33,1.86-2.34,2.44c-1.01,0.58-2.14,0.87-3.41,0.88H5.83z M8.81,20.18v9.66h1.44
		c1.17,0,2.06-0.38,2.67-1.14c0.62-0.76,0.93-1.85,0.94-3.27v-0.77c0-1.47-0.3-2.59-0.91-3.35s-1.5-1.14-2.67-1.14H8.81z"/>
	<path d="M26.63,29.26h-5.23l-0.99,2.98h-3.17l5.39-14.48h2.76l5.42,14.48h-3.17L26.63,29.26z M22.21,26.84h3.62l-1.82-5.42
		L22.21,26.84z"/>
	<path d="M44.06,32.24h-2.98l-5.81-9.52v9.52h-2.98V17.76h2.98l5.82,9.54v-9.54h2.97V32.24z"/>
	<path d="M49.88,32.24H46.9V17.76h2.98V32.24z"/>
	<path d="M61.41,25.96h-5.73v3.88h6.72v2.4h-9.7V17.76h9.68v2.42h-6.7v3.45h5.73V25.96z"/>
	<path d="M67.42,29.84h6.33v2.4h-9.32V17.76h2.98V29.84z"/>
	<path d="M88.04,28.44c0-0.56-0.2-1-0.6-1.3c-0.4-0.3-1.11-0.62-2.15-0.95s-1.85-0.66-2.46-0.99c-1.64-0.89-2.46-2.08-2.46-3.59
		c0-0.78,0.22-1.48,0.66-2.09c0.44-0.61,1.07-1.09,1.9-1.44c0.83-0.34,1.75-0.52,2.78-0.52c1.03,0,1.96,0.19,2.76,0.56
		s1.44,0.9,1.88,1.59s0.67,1.46,0.67,2.33h-2.98c0-0.66-0.21-1.18-0.63-1.55c-0.42-0.37-1-0.55-1.76-0.55c-0.73,0-1.3,0.15-1.7,0.46
		c-0.4,0.31-0.61,0.71-0.61,1.22c0,0.47,0.24,0.86,0.71,1.18c0.47,0.32,1.17,0.62,2.09,0.9c1.7,0.51,2.93,1.14,3.71,1.9
		c0.78,0.76,1.16,1.7,1.16,2.82c0,1.25-0.47,2.24-1.42,2.95c-0.95,0.71-2.22,1.07-3.83,1.07c-1.11,0-2.13-0.2-3.04-0.61
		c-0.92-0.41-1.61-0.97-2.09-1.67c-0.48-0.71-0.72-1.53-0.72-2.47h2.99c0,1.6,0.95,2.4,2.86,2.4c0.71,0,1.26-0.14,1.66-0.43
		S88.04,28.96,88.04,28.44z"/>
	<path d="M104.97,32.24h-2.98v-6.2h-5.82v6.2h-2.98V17.76h2.98v5.87h5.82v-5.87h2.98V32.24z"/>
	<path d="M119.37,25.33c0,1.43-0.25,2.67-0.76,3.75c-0.5,1.07-1.22,1.9-2.16,2.49c-0.94,0.58-2.01,0.88-3.23,0.88
		c-1.2,0-2.27-0.29-3.21-0.87c-0.94-0.58-1.67-1.4-2.19-2.47c-0.52-1.07-0.78-2.3-0.79-3.69v-0.72c0-1.43,0.26-2.68,0.77-3.76
		c0.51-1.08,1.24-1.92,2.18-2.5s2.01-0.87,3.22-0.87c1.21,0,2.28,0.29,3.22,0.87s1.66,1.41,2.18,2.5c0.51,1.08,0.77,2.33,0.77,3.75
		V25.33z M116.34,24.67c0-1.52-0.27-2.67-0.82-3.46c-0.54-0.79-1.32-1.18-2.33-1.18c-1,0-1.77,0.39-2.32,1.17
		c-0.54,0.78-0.82,1.92-0.83,3.42v0.71c0,1.48,0.27,2.62,0.82,3.44c0.54,0.82,1.33,1.22,2.35,1.22c1,0,1.77-0.39,2.31-1.18
		c0.54-0.79,0.81-1.93,0.82-3.44V24.67z"/>
	<path d="M129.09,29.26h-5.23l-0.99,2.98h-3.17l5.39-14.48h2.76l5.42,14.48h-3.17L129.09,29.26z M124.67,26.84h3.62l-1.82-5.42
		L124.67,26.84z"/>
	<path d="M143.46,26.32h-5.73v5.92h-2.98V17.76h9.43v2.42h-6.44v3.74h5.73V26.32z"/>
</g>
</svg>
